<svg xmlns="http://www.w3.org/2000/svg" width="222" height="256" fill="none" viewBox="0 0 222 256"><path fill="#000" d="M164.368 106.045C169.707 109.428 174.603 112.577 179.499 115.726C180.602 116.421 181.659 117.205 182.398 118.16C183.924 119.983 184.056 122.089 183.066 124.393C181.703 127.405 179.726 129.866 177.264 131.959C174.346 134.49 171.386 136.885 168.295 139.099C160.749 144.614 152.942 149.766 144.874 154.554C129.014 163.823 113.29 173.051 97.6022 182.637C90.1219 187.17 83.1625 192.43 75.9008 197.191C68.5925 202.04 61.1073 206.797 53.799 211.646C49.7579 214.376 45.3287 214.413 40.919 213.556C35.7969 212.548 32.5982 207.468 33.5168 202.3C34.2291 198.379 35.9609 194.883 38.9678 192.399C44.3894 187.911 50.0715 183.786 55.7535 179.661C57.5714 178.359 59.7332 177.691 62.0621 177.563C65.5554 177.371 66.6904 178.649 65.8577 181.94C65.8061 182.252 65.6661 182.518 65.4696 183.319C66.5554 182.761 67.2776 182.464 67.9581 182.031C78.9243 175.607 89.5465 168.549 99.7781 160.945C115.785 149.04 132.396 138.132 149.054 127.136C151.506 125.49 154.13 124.16 156.67 122.561C157.35 122.129 157.984 121.785 158.846 121.222C155.844 119.412 153.108 117.741 150.459 116.118C149.71 115.609 149.034 115.818 148.219 116.292C146.271 117.412 144.323 118.533 142.375 119.653C138.203 122.201 134.044 122.154 129.897 119.513C128.706 118.771 127.379 118.071 126.328 117.064C123.387 114.495 123.294 110.601 125.952 107.707C126.731 106.874 127.639 106.223 128.548 105.572C144.885 94.9711 161.086 84.412 177.464 73.9463C182.227 70.9196 187.251 68.2565 192.191 65.3231C192.871 64.8907 193.505 64.5468 194.367 63.9842C193.176 63.2423 192.292 62.7756 191.412 62.0853C189.388 60.5647 188.891 58.7198 189.653 56.6341C190.27 55.0373 191.314 54.3445 193.055 54.4722C194.126 54.5851 195.072 54.2928 196.06 54.1355C197.182 53.9365 198.659 53.9242 199.72 54.4843C204.105 56.4592 208.267 58.4293 212.424 60.623C213.927 61.4164 215.379 62.5218 216.696 63.669C219.418 66.0101 219.619 69.0563 217.148 71.5966C215.866 72.9551 214.318 74.1736 212.598 75.0753C206.629 78.0308 200.915 81.5734 195.415 85.568C186.097 92.297 176.565 98.574 166.773 104.487C166.093 104.92 165.412 105.352 164.368 106.045Z"/><path fill="#FEE715" d="M79.3251 108.428C76.5785 107.205 74.0088 106.075 71.3974 104.81C67.2776 102.975 63.0694 101.093 58.9962 99.1697C58.0651 98.7914 57.2692 98.3713 56.4315 97.8162C53.169 95.6421 52.6702 91.8737 55.1513 88.8864C55.4264 88.5793 55.7015 88.2722 56.0184 88.1002C65.5057 79.7646 73.9832 70.5569 82.3305 61.1674C91.6384 50.8149 101.035 40.5091 110.384 30.2917C112.217 28.319 114.138 26.3929 115.97 24.4202C118.488 21.7916 121.331 20.6909 124.878 22.1107C128.602 23.6239 132.378 24.8251 136.056 26.4267C152.488 33.855 169.341 40.4874 186.152 46.9846C190.365 48.6427 194.62 50.4359 198.74 52.2709C200.202 52.9292 201.57 53.7644 202.71 54.8183C205.65 57.3878 205.385 61.3184 202.425 63.7137C201.47 64.4532 200.384 65.0109 199.298 65.5686C196.399 67.2048 193.547 68.7525 190.737 70.4354C183.028 75.1868 175.408 79.9848 167.657 84.601C159.907 89.2173 152.068 93.7868 144.229 98.3564C141.964 99.6486 139.746 100.852 137.527 102.056C136.893 102.4 136.213 102.833 135.216 103.437C136.1 103.904 136.631 104.184 137.161 104.464C144.455 108.426 151.796 112.3 159.089 116.262C159.62 116.542 160.192 116.957 160.676 117.326C163.664 119.807 163.711 123.789 160.792 126.32C159.743 127.236 158.387 127.877 157.078 128.43C150.931 131.292 144.743 134.019 138.639 137.016C135.745 138.429 132.888 140.2 130.208 142.065C115.856 151.904 101.64 161.702 87.4191 171.723C72.746 181.958 58.1564 192.462 43.5718 202.744C42.4811 203.525 41.3019 204.26 39.9508 204.677C36.6614 205.768 33.9247 204.098 32.7871 200.897C31.9887 198.553 32.0377 196.318 33.0694 194.148C34.9044 190.029 36.6976 185.774 38.933 181.752C46.8527 167.388 55.0378 153.164 62.9575 138.8C68.3151 129.076 73.4958 119.26 78.765 109.489C79.0819 109.317 79.1801 108.917 79.3251 108.428Z"/></svg>