<svg xmlns="http://www.w3.org/2000/svg" width="500" height="500" fill="none" baseProfile="tiny-ps" version="1.2" viewBox="0 0 500 500"><title>bimi-svg-tiny-12-ps</title><g><path fill="#FEE715" d="M274.113 153.765C270.104 153.786 265.954 153.956 261.664 154.289C124.451 164.897 149.532 263.984 189.735 299.721C229.937 335.458 220.044 430.813 220.044 430.813C246.189 476.428 281.251 464.358 296.527 429.329C311.803 394.3 307.293 336.312 331.71 322.661C381.687 294.719 398.394 153.171 274.113 153.765V153.765Z"/><path fill="#000" d="M226.933 21C218.336 21 217.201 27.1393 221.284 51.817C224.088 68.7658 227.874 85.1294 229.681 88.1856C236.238 99.2551 240.864 84.4769 240.864 64.2246C240.864 35.7357 239.682 21 226.933 21ZM416.095 66.3078C415.722 66.299 415.334 66.3605 414.938 66.5312C386.761 78.4543 371.492 85.7509 367.226 96.867C360.267 115.001 386.892 110.223 405.973 89.913C415.325 79.9584 421.08 69.9264 418.777 67.6226C418.182 67.0277 417.211 66.335 416.095 66.3078ZM93.0295 93.5103C76.7038 93.5103 76.5193 96.43 91.4018 119.144C101.304 134.258 123.195 144.301 123.195 133.732C123.195 119.362 103.808 93.5103 93.0295 93.5103ZM179.216 296.714C207.721 323.628 202.958 347.273 202.958 384.418C202.958 415.841 203.531 434.679 209.16 441.562C217.789 452.114 230.017 448.136 232.219 457.27C239.713 488.355 282.646 483.316 287.747 463.81C289.761 456.11 295.98 448.054 301.57 445.909C308.53 443.237 311.722 429.807 311.722 403.267C311.722 368.648 313.035 349.599 330.385 332.862C371.395 293.302 391.64 246.899 366.899 198.39C350.598 166.43 319.831 141.861 262.771 143.448C127.513 147.21 121.097 251.573 179.216 296.714V296.714ZM352.419 209.254C360.265 228.056 360.349 261.796 340.326 291.348C316.948 325.85 303.152 334.314 308.183 302.829C310.036 291.238 312.464 281.22 318.678 271.161C326.192 258.998 323.481 221.895 313.651 218.619C308.723 216.977 300.86 224.041 296.174 234.325C285.49 257.772 279.166 257.76 257.369 234.237C230.088 204.8 211.023 230.673 235.829 263.468C241.684 271.209 245.376 288.386 246.463 301.537C249.104 320.961 247.505 334.227 246.543 342.174C245.15 353.65 221.499 350.603 221.915 345.664C218.835 280.933 157.069 279.143 163.463 225.075C168.37 183.594 213.813 164.467 254.895 159.831C295.997 155.193 337.578 173.698 352.419 209.254V209.254ZM464.42 173.399C449.81 173.338 434.566 175.358 432.003 179.504C429.882 182.936 429.518 187.116 431.197 188.794C436.892 194.489 493 186.287 493 179.758C493 175.602 479.032 173.459 464.42 173.399ZM28.8989 220.385C8.54286 216.894 9.10874 224.448 8.07035 228.98C6.92723 233.969 19.858 241.004 36.4468 240.939C56.9507 240.86 73.98 235.77 65.9069 230.552C58.8159 225.97 50.6049 224.108 28.8989 220.385V220.385ZM277.734 267.55C289.218 267.533 290.292 271.866 286.259 301.978C283.723 320.922 280.354 340.5 278.783 345.485C271.337 369.108 263.078 350.125 263.799 311.057C264.477 274.213 266.607 267.564 277.734 267.55ZM434.99 299.685C434.99 307.539 441.892 311.042 457.355 311.042C485.095 311.042 482.609 293.961 454.379 290.62C446.082 289.494 435.187 290.2 434.99 299.685V299.685ZM96.0046 346.506C68.5091 361.581 53.5187 380.065 58.4467 388.037C67.7253 403.051 79.2264 386.636 100.668 367.204C112.569 356.42 113.766 336.768 96.0046 346.506ZM422.232 373.951C414.141 373.856 411.148 383.161 420.759 394.742C430.239 406.166 449.495 409.137 449.495 399.175C449.495 395.805 443.294 387.44 435.714 380.58C430.639 375.985 425.908 373.994 422.232 373.951V373.951ZM249.511 374.385C253.617 374.394 258.126 374.631 262.845 375.009C281.718 376.521 293.455 372.311 293.217 381.632C292.98 390.953 273.668 393.242 257.809 391.688C241.949 390.135 228.625 394.264 228.784 382.859C228.516 376.39 237.194 374.359 249.511 374.385ZM245.04 410.761C253.24 410.902 262.158 412.557 265.031 412.557C270.776 412.557 290.547 409.59 290.109 420.274C289.688 430.516 268.751 427.06 260.542 427.06C252.329 427.06 229.35 428.877 229.358 418.059C229.358 411.995 236.84 410.62 245.04 410.761Z"/></g></svg>